<svg class="rich-terminal" viewBox="0 0 1482 1026.0" xmlns="http://www.w3.org/2000/svg">
    <!-- Generated with Rich https://www.textualize.io -->
    <style>

    @font-face {
        font-family: "Fira Code";
        src: local("FiraCode-Regular"),
                url("https://cdnjs.cloudflare.com/ajax/libs/firacode/6.2.0/woff2/FiraCode-Regular.woff2") format("woff2"),
                url("https://cdnjs.cloudflare.com/ajax/libs/firacode/6.2.0/woff/FiraCode-Regular.woff") format("woff");
        font-style: normal;
        font-weight: 400;
    }
    @font-face {
        font-family: "Fira Code";
        src: local("FiraCode-Bold"),
                url("https://cdnjs.cloudflare.com/ajax/libs/firacode/6.2.0/woff2/FiraCode-Bold.woff2") format("woff2"),
                url("https://cdnjs.cloudflare.com/ajax/libs/firacode/6.2.0/woff/FiraCode-Bold.woff") format("woff");
        font-style: bold;
        font-weight: 700;
    }

    .terminal-293622159-matrix {
        font-family: Fira Code, monospace;
        font-size: 20px;
        line-height: 24.4px;
        font-variant-east-asian: full-width;
    }

    .terminal-293622159-title {
        font-size: 18px;
        font-weight: bold;
        font-family: arial;
    }

    .terminal-293622159-r1 { fill: #c5c8c6 }
.terminal-293622159-r2 { fill: #e0e0e0 }
.terminal-293622159-r3 { fill: #797979 }
.terminal-293622159-r4 { fill: #262626 }
.terminal-293622159-r5 { fill: #0178d4 }
.terminal-293622159-r6 { fill: #121212 }
.terminal-293622159-r7 { fill: #191919 }
.terminal-293622159-r8 { fill: #737373 }
.terminal-293622159-r9 { fill: #e0e0e0;font-weight: bold }
.terminal-293622159-r10 { fill: #3e3e3e }
.terminal-293622159-r11 { fill: #ddedf9;font-weight: bold }
.terminal-293622159-r12 { fill: #9e9e9e;font-style: italic; }
.terminal-293622159-r13 { fill: #ffa62b;font-weight: bold }
    </style>

    <defs>
    <clipPath id="terminal-293622159-clip-terminal">
      <rect x="0" y="0" width="1463.0" height="975.0" />
    </clipPath>
    <clipPath id="terminal-293622159-line-0">
    <rect x="0" y="1.5" width="1464" height="24.65"/>
            </clipPath>
<clipPath id="terminal-293622159-line-1">
    <rect x="0" y="25.9" width="1464" height="24.65"/>
            </clipPath>
<clipPath id="terminal-293622159-line-2">
    <rect x="0" y="50.3" width="1464" height="24.65"/>
            </clipPath>
<clipPath id="terminal-293622159-line-3">
    <rect x="0" y="74.7" width="1464" height="24.65"/>
            </clipPath>
<clipPath id="terminal-293622159-line-4">
    <rect x="0" y="99.1" width="1464" height="24.65"/>
            </clipPath>
<clipPath id="terminal-293622159-line-5">
    <rect x="0" y="123.5" width="1464" height="24.65"/>
            </clipPath>
<clipPath id="terminal-293622159-line-6">
    <rect x="0" y="147.9" width="1464" height="24.65"/>
            </clipPath>
<clipPath id="terminal-293622159-line-7">
    <rect x="0" y="172.3" width="1464" height="24.65"/>
            </clipPath>
<clipPath id="terminal-293622159-line-8">
    <rect x="0" y="196.7" width="1464" height="24.65"/>
            </clipPath>
<clipPath id="terminal-293622159-line-9">
    <rect x="0" y="221.1" width="1464" height="24.65"/>
            </clipPath>
<clipPath id="terminal-293622159-line-10">
    <rect x="0" y="245.5" width="1464" height="24.65"/>
            </clipPath>
<clipPath id="terminal-293622159-line-11">
    <rect x="0" y="269.9" width="1464" height="24.65"/>
            </clipPath>
<clipPath id="terminal-293622159-line-12">
    <rect x="0" y="294.3" width="1464" height="24.65"/>
            </clipPath>
<clipPath id="terminal-293622159-line-13">
    <rect x="0" y="318.7" width="1464" height="24.65"/>
            </clipPath>
<clipPath id="terminal-293622159-line-14">
    <rect x="0" y="343.1" width="1464" height="24.65"/>
            </clipPath>
<clipPath id="terminal-293622159-line-15">
    <rect x="0" y="367.5" width="1464" height="24.65"/>
            </clipPath>
<clipPath id="terminal-293622159-line-16">
    <rect x="0" y="391.9" width="1464" height="24.65"/>
            </clipPath>
<clipPath id="terminal-293622159-line-17">
    <rect x="0" y="416.3" width="1464" height="24.65"/>
            </clipPath>
<clipPath id="terminal-293622159-line-18">
    <rect x="0" y="440.7" width="1464" height="24.65"/>
            </clipPath>
<clipPath id="terminal-293622159-line-19">
    <rect x="0" y="465.1" width="1464" height="24.65"/>
            </clipPath>
<clipPath id="terminal-293622159-line-20">
    <rect x="0" y="489.5" width="1464" height="24.65"/>
            </clipPath>
<clipPath id="terminal-293622159-line-21">
    <rect x="0" y="513.9" width="1464" height="24.65"/>
            </clipPath>
<clipPath id="terminal-293622159-line-22">
    <rect x="0" y="538.3" width="1464" height="24.65"/>
            </clipPath>
<clipPath id="terminal-293622159-line-23">
    <rect x="0" y="562.7" width="1464" height="24.65"/>
            </clipPath>
<clipPath id="terminal-293622159-line-24">
    <rect x="0" y="587.1" width="1464" height="24.65"/>
            </clipPath>
<clipPath id="terminal-293622159-line-25">
    <rect x="0" y="611.5" width="1464" height="24.65"/>
            </clipPath>
<clipPath id="terminal-293622159-line-26">
    <rect x="0" y="635.9" width="1464" height="24.65"/>
            </clipPath>
<clipPath id="terminal-293622159-line-27">
    <rect x="0" y="660.3" width="1464" height="24.65"/>
            </clipPath>
<clipPath id="terminal-293622159-line-28">
    <rect x="0" y="684.7" width="1464" height="24.65"/>
            </clipPath>
<clipPath id="terminal-293622159-line-29">
    <rect x="0" y="709.1" width="1464" height="24.65"/>
            </clipPath>
<clipPath id="terminal-293622159-line-30">
    <rect x="0" y="733.5" width="1464" height="24.65"/>
            </clipPath>
<clipPath id="terminal-293622159-line-31">
    <rect x="0" y="757.9" width="1464" height="24.65"/>
            </clipPath>
<clipPath id="terminal-293622159-line-32">
    <rect x="0" y="782.3" width="1464" height="24.65"/>
            </clipPath>
<clipPath id="terminal-293622159-line-33">
    <rect x="0" y="806.7" width="1464" height="24.65"/>
            </clipPath>
<clipPath id="terminal-293622159-line-34">
    <rect x="0" y="831.1" width="1464" height="24.65"/>
            </clipPath>
<clipPath id="terminal-293622159-line-35">
    <rect x="0" y="855.5" width="1464" height="24.65"/>
            </clipPath>
<clipPath id="terminal-293622159-line-36">
    <rect x="0" y="879.9" width="1464" height="24.65"/>
            </clipPath>
<clipPath id="terminal-293622159-line-37">
    <rect x="0" y="904.3" width="1464" height="24.65"/>
            </clipPath>
<clipPath id="terminal-293622159-line-38">
    <rect x="0" y="928.7" width="1464" height="24.65"/>
            </clipPath>
    </defs>

    <rect fill="#292929" stroke="rgba(255,255,255,0.35)" stroke-width="1" x="1" y="1" width="1480" height="1024" rx="8"/><text class="terminal-293622159-title" fill="#c5c8c6" text-anchor="middle" x="740" y="27">pyldraw3-tui</text>
            <g transform="translate(26,22)">
            <circle cx="0" cy="0" r="7" fill="#ff5f57"/>
            <circle cx="22" cy="0" r="7" fill="#febc2e"/>
            <circle cx="44" cy="0" r="7" fill="#28c840"/>
            </g>
        
    <g transform="translate(9, 41)" clip-path="url(#terminal-293622159-clip-terminal)">
    <rect fill="#242f38" x="0" y="1.5" width="12.2" height="24.65" shape-rendering="crispEdges"/><rect fill="#242f38" x="12.2" y="1.5" width="12.2" height="24.65" shape-rendering="crispEdges"/><rect fill="#242f38" x="24.4" y="1.5" width="61" height="24.65" shape-rendering="crispEdges"/><rect fill="#242f38" x="85.4" y="1.5" width="12.2" height="24.65" shape-rendering="crispEdges"/><rect fill="#242f38" x="97.6" y="1.5" width="549" height="24.65" shape-rendering="crispEdges"/><rect fill="#242f38" x="646.6" y="1.5" width="146.4" height="24.65" shape-rendering="crispEdges"/><rect fill="#242f38" x="793" y="1.5" width="549" height="24.65" shape-rendering="crispEdges"/><rect fill="#242f38" x="1342" y="1.5" width="12.2" height="24.65" shape-rendering="crispEdges"/><rect fill="#242f38" x="1354.2" y="1.5" width="0" height="24.65" shape-rendering="crispEdges"/><rect fill="#242f38" x="1354.2" y="1.5" width="97.6" height="24.65" shape-rendering="crispEdges"/><rect fill="#242f38" x="1451.8" y="1.5" width="12.2" height="24.65" shape-rendering="crispEdges"/><rect fill="#121212" x="0" y="25.9" width="12.2" height="24.65" shape-rendering="crispEdges"/><rect fill="#121212" x="12.2" y="25.9" width="85.4" height="24.65" shape-rendering="crispEdges"/><rect fill="#121212" x="97.6" y="25.9" width="12.2" height="24.65" shape-rendering="crispEdges"/><rect fill="#121212" x="109.8" y="25.9" width="12.2" height="24.65" shape-rendering="crispEdges"/><rect fill="#121212" x="122" y="25.9" width="61" height="24.65" shape-rendering="crispEdges"/><rect fill="#121212" x="183" y="25.9" width="12.2" height="24.65" shape-rendering="crispEdges"/><rect fill="#121212" x="195.2" y="25.9" width="1268.8" height="24.65" shape-rendering="crispEdges"/><rect fill="#121212" x="0" y="50.3" width="12.2" height="24.65" shape-rendering="crispEdges"/><rect fill="#121212" x="12.2" y="50.3" width="85.4" height="24.65" shape-rendering="crispEdges"/><rect fill="#121212" x="97.6" y="50.3" width="12.2" height="24.65" shape-rendering="crispEdges"/><rect fill="#121212" x="109.8" y="50.3" width="1354.2" height="24.65" shape-rendering="crispEdges"/><rect fill="#191919" x="0" y="74.7" width="12.2" height="24.65" shape-rendering="crispEdges"/><rect fill="#1e1e1e" x="12.2" y="74.7" width="317.2" height="24.65" shape-rendering="crispEdges"/><rect fill="#121212" x="329.4" y="74.7" width="12.2" height="24.65" shape-rendering="crispEdges"/><rect fill="#272727" x="341.6" y="74.7" width="12.2" height="24.65" shape-rendering="crispEdges"/><rect fill="#272727" x="353.8" y="74.7" width="12.2" height="24.65" shape-rendering="crispEdges"/><rect fill="#272727" x="366" y="74.7" width="183" height="24.65" shape-rendering="crispEdges"/><rect fill="#272727" x="549" y="74.7" width="341.6" height="24.65" shape-rendering="crispEdges"/><rect fill="#272727" x="890.6" y="74.7" width="12.2" height="24.65" shape-rendering="crispEdges"/><rect fill="#121212" x="902.8" y="74.7" width="12.2" height="24.65" shape-rendering="crispEdges"/><rect fill="#121212" x="915" y="74.7" width="48.8" height="24.65" shape-rendering="crispEdges"/><rect fill="#121212" x="963.8" y="74.7" width="12.2" height="24.65" shape-rendering="crispEdges"/><rect fill="#121212" x="976" y="74.7" width="12.2" height="24.65" shape-rendering="crispEdges"/><rect fill="#121212" x="988.2" y="74.7" width="109.8" height="24.65" shape-rendering="crispEdges"/><rect fill="#121212" x="1098" y="74.7" width="12.2" height="24.65" shape-rendering="crispEdges"/><rect fill="#121212" x="1110.2" y="74.7" width="353.8" height="24.65" shape-rendering="crispEdges"/><rect fill="#191919" x="0" y="99.1" width="12.2" height="24.65" shape-rendering="crispEdges"/><rect fill="#1e1e1e" x="12.2" y="99.1" width="24.4" height="24.65" shape-rendering="crispEdges"/><rect fill="#1e1e1e" x="36.6" y="99.1" width="158.6" height="24.65" shape-rendering="crispEdges"/><rect fill="#1e1e1e" x="195.2" y="99.1" width="109.8" height="24.65" shape-rendering="crispEdges"/><rect fill="#1e1e1e" x="305" y="99.1" width="24.4" height="24.65" shape-rendering="crispEdges"/><rect fill="#121212" x="329.4" y="99.1" width="12.2" height="24.65" shape-rendering="crispEdges"/><rect fill="#272727" x="341.6" y="99.1" width="12.2" height="24.65" shape-rendering="crispEdges"/><rect fill="#2d3740" x="353.8" y="99.1" width="73.2" height="24.65" shape-rendering="crispEdges"/><rect fill="#2d3740" x="427" y="99.1" width="390.4" height="24.65" shape-rendering="crispEdges"/><rect fill="#2d3740" x="817.4" y="99.1" width="73.2" height="24.65" shape-rendering="crispEdges"/><rect fill="#272727" x="890.6" y="99.1" width="12.2" height="24.65" shape-rendering="crispEdges"/><rect fill="#121212" x="902.8" y="99.1" width="73.2" height="24.65" shape-rendering="crispEdges"/><rect fill="#121212" x="976" y="99.1" width="12.2" height="24.65" shape-rendering="crispEdges"/><rect fill="#121212" x="988.2" y="99.1" width="109.8" height="24.65" shape-rendering="crispEdges"/><rect fill="#121212" x="1098" y="99.1" width="12.2" height="24.65" shape-rendering="crispEdges"/><rect fill="#121212" x="1110.2" y="99.1" width="353.8" height="24.65" shape-rendering="crispEdges"/><rect fill="#191919" x="0" y="123.5" width="12.2" height="24.65" shape-rendering="crispEdges"/><rect fill="#1e1e1e" x="12.2" y="123.5" width="317.2" height="24.65" shape-rendering="crispEdges"/><rect fill="#121212" x="329.4" y="123.5" width="12.2" height="24.65" shape-rendering="crispEdges"/><rect fill="#272727" x="341.6" y="123.5" width="12.2" height="24.65" shape-rendering="crispEdges"/><rect fill="#1c1c1c" x="353.8" y="123.5" width="73.2" height="24.65" shape-rendering="crispEdges"/><rect fill="#1c1c1c" x="427" y="123.5" width="390.4" height="24.65" shape-rendering="crispEdges"/><rect fill="#1c1c1c" x="817.4" y="123.5" width="73.2" height="24.65" shape-rendering="crispEdges"/><rect fill="#272727" x="890.6" y="123.5" width="12.2" height="24.65" shape-rendering="crispEdges"/><rect fill="#1e1e1e" x="902.8" y="123.5" width="24.4" height="24.65" shape-rendering="crispEdges"/><rect fill="#153854" x="927.2" y="123.5" width="451.4" height="24.65" shape-rendering="crispEdges"/><rect fill="#1e1e1e" x="1378.6" y="123.5" width="85.4" height="24.65" shape-rendering="crispEdges"/><rect fill="#1e1e1e" x="0" y="147.9" width="24.4" height="24.65" shape-rendering="crispEdges"/><rect fill="#153854" x="24.4" y="147.9" width="158.6" height="24.65" shape-rendering="crispEdges"/><rect fill="#1e1e1e" x="183" y="147.9" width="158.6" height="24.65" shape-rendering="crispEdges"/><rect fill="#272727" x="341.6" y="147.9" width="12.2" height="24.65" shape-rendering="crispEdges"/><rect fill="#272727" x="353.8" y="147.9" width="73.2" height="24.65" shape-rendering="crispEdges"/><rect fill="#272727" x="427" y="147.9" width="390.4" height="24.65" shape-rendering="crispEdges"/><rect fill="#272727" x="817.4" y="147.9" width="73.2" height="24.65" shape-rendering="crispEdges"/><rect fill="#272727" x="890.6" y="147.9" width="12.2" height="24.65" shape-rendering="crispEdges"/><rect fill="#1e1e1e" x="902.8" y="147.9" width="48.8" height="24.65" shape-rendering="crispEdges"/><rect fill="#1e1e1e" x="951.6" y="147.9" width="24.4" height="24.65" shape-rendering="crispEdges"/><rect fill="#1e1e1e" x="976" y="147.9" width="48.8" height="24.65" shape-rendering="crispEdges"/><rect fill="#1e1e1e" x="1024.8" y="147.9" width="170.8" height="24.65" shape-rendering="crispEdges"/><rect fill="#1e1e1e" x="1195.6" y="147.9" width="268.4" height="24.65" shape-rendering="crispEdges"/><rect fill="#1e1e1e" x="0" y="172.3" width="48.8" height="24.65" shape-rendering="crispEdges"/><rect fill="#1e1e1e" x="48.8" y="172.3" width="109.8" height="24.65" shape-rendering="crispEdges"/><rect fill="#1e1e1e" x="158.6" y="172.3" width="183" height="24.65" shape-rendering="crispEdges"/><rect fill="#272727" x="341.6" y="172.3" width="12.2" height="24.65" shape-rendering="crispEdges"/><rect fill="#0178d4" x="353.8" y="172.3" width="73.2" height="24.65" shape-rendering="crispEdges"/><rect fill="#0178d4" x="427" y="172.3" width="390.4" height="24.65" shape-rendering="crispEdges"/><rect fill="#0178d4" x="817.4" y="172.3" width="73.2" height="24.65" shape-rendering="crispEdges"/><rect fill="#272727" x="890.6" y="172.3" width="12.2" height="24.65" shape-rendering="crispEdges"/><rect fill="#1e1e1e" x="902.8" y="172.3" width="48.8" height="24.65" shape-rendering="crispEdges"/><rect fill="#1e1e1e" x="951.6" y="172.3" width="24.4" height="24.65" shape-rendering="crispEdges"/><rect fill="#1e1e1e" x="976" y="172.3" width="48.8" height="24.65" shape-rendering="crispEdges"/><rect fill="#1e1e1e" x="1024.8" y="172.3" width="85.4" height="24.65" shape-rendering="crispEdges"/><rect fill="#1e1e1e" x="1110.2" y="172.3" width="146.4" height="24.65" shape-rendering="crispEdges"/><rect fill="#1e1e1e" x="1256.6" y="172.3" width="207.4" height="24.65" shape-rendering="crispEdges"/><rect fill="#1e1e1e" x="0" y="196.7" width="48.8" height="24.65" shape-rendering="crispEdges"/><rect fill="#1e1e1e" x="48.8" y="196.7" width="134.2" height="24.65" shape-rendering="crispEdges"/><rect fill="#1e1e1e" x="183" y="196.7" width="158.6" height="24.65" shape-rendering="crispEdges"/><rect fill="#272727" x="341.6" y="196.7" width="12.2" height="24.65" shape-rendering="crispEdges"/><rect fill="#272727" x="353.8" y="196.7" width="73.2" height="24.65" shape-rendering="crispEdges"/><rect fill="#272727" x="427" y="196.7" width="390.4" height="24.65" shape-rendering="crispEdges"/><rect fill="#272727" x="817.4" y="196.7" width="73.2" height="24.65" shape-rendering="crispEdges"/><rect fill="#272727" x="890.6" y="196.7" width="12.2" height="24.65" shape-rendering="crispEdges"/><rect fill="#1e1e1e" x="902.8" y="196.7" width="561.2" height="24.65" shape-rendering="crispEdges"/><rect fill="#1e1e1e" x="0" y="221.1" width="48.8" height="24.65" shape-rendering="crispEdges"/><rect fill="#1e1e1e" x="48.8" y="221.1" width="109.8" height="24.65" shape-rendering="crispEdges"/><rect fill="#1e1e1e" x="158.6" y="221.1" width="183" height="24.65" shape-rendering="crispEdges"/><rect fill="#272727" x="341.6" y="221.1" width="12.2" height="24.65" shape-rendering="crispEdges"/><rect fill="#1c1c1c" x="353.8" y="221.1" width="73.2" height="24.65" shape-rendering="crispEdges"/><rect fill="#1c1c1c" x="427" y="221.1" width="390.4" height="24.65" shape-rendering="crispEdges"/><rect fill="#1c1c1c" x="817.4" y="221.1" width="73.2" height="24.65" shape-rendering="crispEdges"/><rect fill="#272727" x="890.6" y="221.1" width="12.2" height="24.65" shape-rendering="crispEdges"/><rect fill="#1e1e1e" x="902.8" y="221.1" width="561.2" height="24.65" shape-rendering="crispEdges"/><rect fill="#1e1e1e" x="0" y="245.5" width="48.8" height="24.65" shape-rendering="crispEdges"/><rect fill="#1e1e1e" x="48.8" y="245.5" width="24.4" height="24.65" shape-rendering="crispEdges"/><rect fill="#1e1e1e" x="73.2" y="245.5" width="134.2" height="24.65" shape-rendering="crispEdges"/><rect fill="#1e1e1e" x="207.4" y="245.5" width="134.2" height="24.65" shape-rendering="crispEdges"/><rect fill="#272727" x="341.6" y="245.5" width="12.2" height="24.65" shape-rendering="crispEdges"/><rect fill="#272727" x="353.8" y="245.5" width="536.8" height="24.65" shape-rendering="crispEdges"/><rect fill="#272727" x="890.6" y="245.5" width="12.2" height="24.65" shape-rendering="crispEdges"/><rect fill="#1e1e1e" x="902.8" y="245.5" width="561.2" height="24.65" shape-rendering="crispEdges"/><rect fill="#1e1e1e" x="0" y="269.9" width="341.6" height="24.65" shape-rendering="crispEdges"/><rect fill="#121212" x="341.6" y="269.9" width="561.2" height="24.65" shape-rendering="crispEdges"/><rect fill="#1e1e1e" x="902.8" y="269.9" width="561.2" height="24.65" shape-rendering="crispEdges"/><rect fill="#1e1e1e" x="0" y="294.3" width="341.6" height="24.65" shape-rendering="crispEdges"/><rect fill="#121212" x="341.6" y="294.3" width="561.2" height="24.65" shape-rendering="crispEdges"/><rect fill="#1e1e1e" x="902.8" y="294.3" width="561.2" height="24.65" shape-rendering="crispEdges"/><rect fill="#1e1e1e" x="0" y="318.7" width="341.6" height="24.65" shape-rendering="crispEdges"/><rect fill="#121212" x="341.6" y="318.7" width="561.2" height="24.65" shape-rendering="crispEdges"/><rect fill="#1e1e1e" x="902.8" y="318.7" width="561.2" height="24.65" shape-rendering="crispEdges"/><rect fill="#1e1e1e" x="0" y="343.1" width="341.6" height="24.65" shape-rendering="crispEdges"/><rect fill="#121212" x="341.6" y="343.1" width="561.2" height="24.65" shape-rendering="crispEdges"/><rect fill="#1e1e1e" x="902.8" y="343.1" width="561.2" height="24.65" shape-rendering="crispEdges"/><rect fill="#1e1e1e" x="0" y="367.5" width="341.6" height="24.65" shape-rendering="crispEdges"/><rect fill="#121212" x="341.6" y="367.5" width="561.2" height="24.65" shape-rendering="crispEdges"/><rect fill="#1e1e1e" x="902.8" y="367.5" width="561.2" height="24.65" shape-rendering="crispEdges"/><rect fill="#1e1e1e" x="0" y="391.9" width="341.6" height="24.65" shape-rendering="crispEdges"/><rect fill="#121212" x="341.6" y="391.9" width="561.2" height="24.65" shape-rendering="crispEdges"/><rect fill="#1e1e1e" x="902.8" y="391.9" width="561.2" height="24.65" shape-rendering="crispEdges"/><rect fill="#1e1e1e" x="0" y="416.3" width="341.6" height="24.65" shape-rendering="crispEdges"/><rect fill="#121212" x="341.6" y="416.3" width="561.2" height="24.65" shape-rendering="crispEdges"/><rect fill="#1e1e1e" x="902.8" y="416.3" width="561.2" height="24.65" shape-rendering="crispEdges"/><rect fill="#1e1e1e" x="0" y="440.7" width="341.6" height="24.65" shape-rendering="crispEdges"/><rect fill="#121212" x="341.6" y="440.7" width="561.2" height="24.65" shape-rendering="crispEdges"/><rect fill="#1e1e1e" x="902.8" y="440.7" width="561.2" height="24.65" shape-rendering="crispEdges"/><rect fill="#1e1e1e" x="0" y="465.1" width="341.6" height="24.65" shape-rendering="crispEdges"/><rect fill="#121212" x="341.6" y="465.1" width="561.2" height="24.65" shape-rendering="crispEdges"/><rect fill="#1e1e1e" x="902.8" y="465.1" width="561.2" height="24.65" shape-rendering="crispEdges"/><rect fill="#1e1e1e" x="0" y="489.5" width="341.6" height="24.65" shape-rendering="crispEdges"/><rect fill="#121212" x="341.6" y="489.5" width="561.2" height="24.65" shape-rendering="crispEdges"/><rect fill="#1e1e1e" x="902.8" y="489.5" width="561.2" height="24.65" shape-rendering="crispEdges"/><rect fill="#1e1e1e" x="0" y="513.9" width="341.6" height="24.65" shape-rendering="crispEdges"/><rect fill="#121212" x="341.6" y="513.9" width="561.2" height="24.65" shape-rendering="crispEdges"/><rect fill="#1e1e1e" x="902.8" y="513.9" width="561.2" height="24.65" shape-rendering="crispEdges"/><rect fill="#1e1e1e" x="0" y="538.3" width="341.6" height="24.65" shape-rendering="crispEdges"/><rect fill="#121212" x="341.6" y="538.3" width="561.2" height="24.65" shape-rendering="crispEdges"/><rect fill="#1e1e1e" x="902.8" y="538.3" width="561.2" height="24.65" shape-rendering="crispEdges"/><rect fill="#1e1e1e" x="0" y="562.7" width="341.6" height="24.65" shape-rendering="crispEdges"/><rect fill="#121212" x="341.6" y="562.7" width="561.2" height="24.65" shape-rendering="crispEdges"/><rect fill="#1e1e1e" x="902.8" y="562.7" width="561.2" height="24.65" shape-rendering="crispEdges"/><rect fill="#1e1e1e" x="0" y="587.1" width="341.6" height="24.65" shape-rendering="crispEdges"/><rect fill="#121212" x="341.6" y="587.1" width="561.2" height="24.65" shape-rendering="crispEdges"/><rect fill="#1e1e1e" x="902.8" y="587.1" width="561.2" height="24.65" shape-rendering="crispEdges"/><rect fill="#1e1e1e" x="0" y="611.5" width="341.6" height="24.65" shape-rendering="crispEdges"/><rect fill="#121212" x="341.6" y="611.5" width="561.2" height="24.65" shape-rendering="crispEdges"/><rect fill="#1e1e1e" x="902.8" y="611.5" width="561.2" height="24.65" shape-rendering="crispEdges"/><rect fill="#1e1e1e" x="0" y="635.9" width="341.6" height="24.65" shape-rendering="crispEdges"/><rect fill="#121212" x="341.6" y="635.9" width="561.2" height="24.65" shape-rendering="crispEdges"/><rect fill="#1e1e1e" x="902.8" y="635.9" width="561.2" height="24.65" shape-rendering="crispEdges"/><rect fill="#1e1e1e" x="0" y="660.3" width="341.6" height="24.65" shape-rendering="crispEdges"/><rect fill="#121212" x="341.6" y="660.3" width="561.2" height="24.65" shape-rendering="crispEdges"/><rect fill="#1e1e1e" x="902.8" y="660.3" width="561.2" height="24.65" shape-rendering="crispEdges"/><rect fill="#1e1e1e" x="0" y="684.7" width="341.6" height="24.65" shape-rendering="crispEdges"/><rect fill="#121212" x="341.6" y="684.7" width="561.2" height="24.65" shape-rendering="crispEdges"/><rect fill="#1e1e1e" x="902.8" y="684.7" width="561.2" height="24.65" shape-rendering="crispEdges"/><rect fill="#1e1e1e" x="0" y="709.1" width="341.6" height="24.65" shape-rendering="crispEdges"/><rect fill="#121212" x="341.6" y="709.1" width="561.2" height="24.65" shape-rendering="crispEdges"/><rect fill="#1e1e1e" x="902.8" y="709.1" width="561.2" height="24.65" shape-rendering="crispEdges"/><rect fill="#1e1e1e" x="0" y="733.5" width="341.6" height="24.65" shape-rendering="crispEdges"/><rect fill="#121212" x="341.6" y="733.5" width="561.2" height="24.65" shape-rendering="crispEdges"/><rect fill="#1e1e1e" x="902.8" y="733.5" width="561.2" height="24.65" shape-rendering="crispEdges"/><rect fill="#1e1e1e" x="0" y="757.9" width="341.6" height="24.65" shape-rendering="crispEdges"/><rect fill="#121212" x="341.6" y="757.9" width="561.2" height="24.65" shape-rendering="crispEdges"/><rect fill="#1e1e1e" x="902.8" y="757.9" width="561.2" height="24.65" shape-rendering="crispEdges"/><rect fill="#1e1e1e" x="0" y="782.3" width="341.6" height="24.65" shape-rendering="crispEdges"/><rect fill="#121212" x="341.6" y="782.3" width="561.2" height="24.65" shape-rendering="crispEdges"/><rect fill="#1e1e1e" x="902.8" y="782.3" width="561.2" height="24.65" shape-rendering="crispEdges"/><rect fill="#1e1e1e" x="0" y="806.7" width="341.6" height="24.65" shape-rendering="crispEdges"/><rect fill="#121212" x="341.6" y="806.7" width="561.2" height="24.65" shape-rendering="crispEdges"/><rect fill="#1e1e1e" x="902.8" y="806.7" width="561.2" height="24.65" shape-rendering="crispEdges"/><rect fill="#1e1e1e" x="0" y="831.1" width="341.6" height="24.65" shape-rendering="crispEdges"/><rect fill="#121212" x="341.6" y="831.1" width="561.2" height="24.65" shape-rendering="crispEdges"/><rect fill="#1e1e1e" x="902.8" y="831.1" width="561.2" height="24.65" shape-rendering="crispEdges"/><rect fill="#1e1e1e" x="0" y="855.5" width="341.6" height="24.65" shape-rendering="crispEdges"/><rect fill="#121212" x="341.6" y="855.5" width="561.2" height="24.65" shape-rendering="crispEdges"/><rect fill="#1e1e1e" x="902.8" y="855.5" width="561.2" height="24.65" shape-rendering="crispEdges"/><rect fill="#1e1e1e" x="0" y="879.9" width="341.6" height="24.65" shape-rendering="crispEdges"/><rect fill="#121212" x="341.6" y="879.9" width="561.2" height="24.65" shape-rendering="crispEdges"/><rect fill="#1e1e1e" x="902.8" y="879.9" width="561.2" height="24.65" shape-rendering="crispEdges"/><rect fill="#1e1e1e" x="0" y="904.3" width="341.6" height="24.65" shape-rendering="crispEdges"/><rect fill="#121212" x="341.6" y="904.3" width="561.2" height="24.65" shape-rendering="crispEdges"/><rect fill="#1e1e1e" x="902.8" y="904.3" width="561.2" height="24.65" shape-rendering="crispEdges"/><rect fill="#1e1e1e" x="0" y="928.7" width="341.6" height="24.65" shape-rendering="crispEdges"/><rect fill="#121212" x="341.6" y="928.7" width="561.2" height="24.65" shape-rendering="crispEdges"/><rect fill="#1e1e1e" x="902.8" y="928.7" width="561.2" height="24.65" shape-rendering="crispEdges"/><rect fill="#242f38" x="0" y="953.1" width="36.6" height="24.65" shape-rendering="crispEdges"/><rect fill="#242f38" x="36.6" y="953.1" width="85.4" height="24.65" shape-rendering="crispEdges"/><rect fill="#242f38" x="122" y="953.1" width="36.6" height="24.65" shape-rendering="crispEdges"/><rect fill="#242f38" x="158.6" y="953.1" width="61" height="24.65" shape-rendering="crispEdges"/><rect fill="#242f38" x="219.6" y="953.1" width="36.6" height="24.65" shape-rendering="crispEdges"/><rect fill="#242f38" x="256.2" y="953.1" width="61" height="24.65" shape-rendering="crispEdges"/><rect fill="#242f38" x="317.2" y="953.1" width="36.6" height="24.65" shape-rendering="crispEdges"/><rect fill="#242f38" x="353.8" y="953.1" width="97.6" height="24.65" shape-rendering="crispEdges"/><rect fill="#242f38" x="451.4" y="953.1" width="36.6" height="24.65" shape-rendering="crispEdges"/><rect fill="#242f38" x="488" y="953.1" width="73.2" height="24.65" shape-rendering="crispEdges"/><rect fill="#242f38" x="561.2" y="953.1" width="36.6" height="24.65" shape-rendering="crispEdges"/><rect fill="#242f38" x="597.8" y="953.1" width="122" height="24.65" shape-rendering="crispEdges"/><rect fill="#242f38" x="719.8" y="953.1" width="36.6" height="24.65" shape-rendering="crispEdges"/><rect fill="#242f38" x="756.4" y="953.1" width="122" height="24.65" shape-rendering="crispEdges"/><rect fill="#242f38" x="878.4" y="953.1" width="36.6" height="24.65" shape-rendering="crispEdges"/><rect fill="#242f38" x="915" y="953.1" width="97.6" height="24.65" shape-rendering="crispEdges"/><rect fill="#242f38" x="1012.6" y="953.1" width="451.4" height="24.65" shape-rendering="crispEdges"/>
    <g class="terminal-293622159-matrix">
    <text class="terminal-293622159-r2" x="12.2" y="20" textLength="12.2" clip-path="url(#terminal-293622159-line-0)">⭘</text><text class="terminal-293622159-r2" x="646.6" y="20" textLength="146.4" clip-path="url(#terminal-293622159-line-0)">pyldraw3-tui</text><text class="terminal-293622159-r1" x="1464" y="20" textLength="12.2" clip-path="url(#terminal-293622159-line-0)">
</text><text class="terminal-293622159-r2" x="12.2" y="44.4" textLength="85.4" clip-path="url(#terminal-293622159-line-1)">Catalog</text><text class="terminal-293622159-r3" x="122" y="44.4" textLength="61" clip-path="url(#terminal-293622159-line-1)">Model</text><text class="terminal-293622159-r1" x="1464" y="44.4" textLength="12.2" clip-path="url(#terminal-293622159-line-1)">
</text><text class="terminal-293622159-r4" x="0" y="68.8" textLength="12.2" clip-path="url(#terminal-293622159-line-2)">╸</text><text class="terminal-293622159-r5" x="12.2" y="68.8" textLength="85.4" clip-path="url(#terminal-293622159-line-2)">━━━━━━━</text><text class="terminal-293622159-r4" x="97.6" y="68.8" textLength="12.2" clip-path="url(#terminal-293622159-line-2)">╺</text><text class="terminal-293622159-r4" x="109.8" y="68.8" textLength="1354.2" clip-path="url(#terminal-293622159-line-2)">━━━━━━━━━━━━━━━━━━━━━━━━━━━━━━━━━━━━━━━━━━━━━━━━━━━━━━━━━━━━━━━━━━━━━━━━━━━━━━━━━━━━━━━━━━━━━━━━━━━━━━━━━━━━━━━</text><text class="terminal-293622159-r1" x="1464" y="68.8" textLength="12.2" clip-path="url(#terminal-293622159-line-2)">
</text><text class="terminal-293622159-r6" x="0" y="93.2" textLength="12.2" clip-path="url(#terminal-293622159-line-3)">▊</text><text class="terminal-293622159-r7" x="12.2" y="93.2" textLength="317.2" clip-path="url(#terminal-293622159-line-3)">▔▔▔▔▔▔▔▔▔▔▔▔▔▔▔▔▔▔▔▔▔▔▔▔▔▔</text><text class="terminal-293622159-r7" x="329.4" y="93.2" textLength="12.2" clip-path="url(#terminal-293622159-line-3)">▎</text><text class="terminal-293622159-r5" x="341.6" y="93.2" textLength="12.2" clip-path="url(#terminal-293622159-line-3)">╭</text><text class="terminal-293622159-r5" x="353.8" y="93.2" textLength="12.2" clip-path="url(#terminal-293622159-line-3)">─</text><text class="terminal-293622159-r5" x="366" y="93.2" textLength="183" clip-path="url(#terminal-293622159-line-3)">&#160;All&#160;parts&#160;(5)&#160;</text><text class="terminal-293622159-r5" x="549" y="93.2" textLength="341.6" clip-path="url(#terminal-293622159-line-3)">────────────────────────────</text><text class="terminal-293622159-r5" x="890.6" y="93.2" textLength="12.2" clip-path="url(#terminal-293622159-line-3)">╮</text><text class="terminal-293622159-r3" x="915" y="93.2" textLength="48.8" clip-path="url(#terminal-293622159-line-3)">Info</text><text class="terminal-293622159-r2" x="988.2" y="93.2" textLength="109.8" clip-path="url(#terminal-293622159-line-3)">Sub-parts</text><text class="terminal-293622159-r1" x="1464" y="93.2" textLength="12.2" clip-path="url(#terminal-293622159-line-3)">
</text><text class="terminal-293622159-r6" x="0" y="117.6" textLength="12.2" clip-path="url(#terminal-293622159-line-4)">▊</text><text class="terminal-293622159-r8" x="36.6" y="117.6" textLength="158.6" clip-path="url(#terminal-293622159-line-4)">filter&#160;parts…</text><text class="terminal-293622159-r7" x="329.4" y="117.6" textLength="12.2" clip-path="url(#terminal-293622159-line-4)">▎</text><text class="terminal-293622159-r5" x="341.6" y="117.6" textLength="12.2" clip-path="url(#terminal-293622159-line-4)">│</text><text class="terminal-293622159-r9" x="353.8" y="117.6" textLength="73.2" clip-path="url(#terminal-293622159-line-4)">&#160;Code&#160;</text><text class="terminal-293622159-r9" x="427" y="117.6" textLength="390.4" clip-path="url(#terminal-293622159-line-4)">&#160;Description&#160;&#160;&#160;&#160;&#160;&#160;&#160;&#160;&#160;&#160;&#160;&#160;&#160;&#160;&#160;&#160;&#160;&#160;&#160;&#160;</text><text class="terminal-293622159-r5" x="890.6" y="117.6" textLength="12.2" clip-path="url(#terminal-293622159-line-4)">│</text><text class="terminal-293622159-r4" x="902.8" y="117.6" textLength="73.2" clip-path="url(#terminal-293622159-line-4)">━━━━━━</text><text class="terminal-293622159-r4" x="976" y="117.6" textLength="12.2" clip-path="url(#terminal-293622159-line-4)">╸</text><text class="terminal-293622159-r5" x="988.2" y="117.6" textLength="109.8" clip-path="url(#terminal-293622159-line-4)">━━━━━━━━━</text><text class="terminal-293622159-r4" x="1098" y="117.6" textLength="12.2" clip-path="url(#terminal-293622159-line-4)">╺</text><text class="terminal-293622159-r4" x="1110.2" y="117.6" textLength="353.8" clip-path="url(#terminal-293622159-line-4)">━━━━━━━━━━━━━━━━━━━━━━━━━━━━━</text><text class="terminal-293622159-r1" x="1464" y="117.6" textLength="12.2" clip-path="url(#terminal-293622159-line-4)">
</text><text class="terminal-293622159-r6" x="0" y="142" textLength="12.2" clip-path="url(#terminal-293622159-line-5)">▊</text><text class="terminal-293622159-r7" x="12.2" y="142" textLength="317.2" clip-path="url(#terminal-293622159-line-5)">▁▁▁▁▁▁▁▁▁▁▁▁▁▁▁▁▁▁▁▁▁▁▁▁▁▁</text><text class="terminal-293622159-r7" x="329.4" y="142" textLength="12.2" clip-path="url(#terminal-293622159-line-5)">▎</text><text class="terminal-293622159-r5" x="341.6" y="142" textLength="12.2" clip-path="url(#terminal-293622159-line-5)">│</text><text class="terminal-293622159-r2" x="353.8" y="142" textLength="73.2" clip-path="url(#terminal-293622159-line-5)">&#160;3001&#160;</text><text class="terminal-293622159-r2" x="427" y="142" textLength="390.4" clip-path="url(#terminal-293622159-line-5)">&#160;Brick&#160;2&#160;x&#160;4&#160;&#160;&#160;&#160;&#160;&#160;&#160;&#160;&#160;&#160;&#160;&#160;&#160;&#160;&#160;&#160;&#160;&#160;&#160;&#160;</text><text class="terminal-293622159-r5" x="890.6" y="142" textLength="12.2" clip-path="url(#terminal-293622159-line-5)">│</text><text class="terminal-293622159-r2" x="902.8" y="142" textLength="24.4" clip-path="url(#terminal-293622159-line-5)">▼&#160;</text><text class="terminal-293622159-r2" x="927.2" y="142" textLength="451.4" clip-path="url(#terminal-293622159-line-5)">6157&#160;—&#160;Plate&#160;2&#160;x&#160;2&#160;with&#160;Wheel&#160;Holders</text><text class="terminal-293622159-r1" x="1464" y="142" textLength="12.2" clip-path="url(#terminal-293622159-line-5)">
</text><text class="terminal-293622159-r2" x="0" y="166.4" textLength="24.4" clip-path="url(#terminal-293622159-line-6)">▼&#160;</text><text class="terminal-293622159-r2" x="24.4" y="166.4" textLength="158.6" clip-path="url(#terminal-293622159-line-6)">All&#160;parts&#160;(5)</text><text class="terminal-293622159-r5" x="341.6" y="166.4" textLength="12.2" clip-path="url(#terminal-293622159-line-6)">│</text><text class="terminal-293622159-r2" x="353.8" y="166.4" textLength="73.2" clip-path="url(#terminal-293622159-line-6)">&#160;3022&#160;</text><text class="terminal-293622159-r2" x="427" y="166.4" textLength="390.4" clip-path="url(#terminal-293622159-line-6)">&#160;Plate&#160;2&#160;x&#160;2&#160;&#160;&#160;&#160;&#160;&#160;&#160;&#160;&#160;&#160;&#160;&#160;&#160;&#160;&#160;&#160;&#160;&#160;&#160;&#160;</text><text class="terminal-293622159-r5" x="890.6" y="166.4" textLength="12.2" clip-path="url(#terminal-293622159-line-6)">│</text><text class="terminal-293622159-r10" x="902.8" y="166.4" textLength="48.8" clip-path="url(#terminal-293622159-line-6)">├──&#160;</text><text class="terminal-293622159-r2" x="951.6" y="166.4" textLength="24.4" clip-path="url(#terminal-293622159-line-6)">▶&#160;</text><text class="terminal-293622159-r9" x="976" y="166.4" textLength="48.8" clip-path="url(#terminal-293622159-line-6)">3022</text><text class="terminal-293622159-r2" x="1024.8" y="166.4" textLength="170.8" clip-path="url(#terminal-293622159-line-6)">&#160;—&#160;Plate&#160;2&#160;x&#160;2</text><text class="terminal-293622159-r1" x="1464" y="166.4" textLength="12.2" clip-path="url(#terminal-293622159-line-6)">
</text><text class="terminal-293622159-r10" x="0" y="190.8" textLength="48.8" clip-path="url(#terminal-293622159-line-7)">├──&#160;</text><text class="terminal-293622159-r2" x="48.8" y="190.8" textLength="109.8" clip-path="url(#terminal-293622159-line-7)">Brick&#160;(1)</text><text class="terminal-293622159-r5" x="341.6" y="190.8" textLength="12.2" clip-path="url(#terminal-293622159-line-7)">│</text><text class="terminal-293622159-r11" x="353.8" y="190.8" textLength="73.2" clip-path="url(#terminal-293622159-line-7)">&#160;6157&#160;</text><text class="terminal-293622159-r11" x="427" y="190.8" textLength="390.4" clip-path="url(#terminal-293622159-line-7)">&#160;Plate&#160;2&#160;x&#160;2&#160;with&#160;Wheel&#160;Holders&#160;</text><text class="terminal-293622159-r5" x="890.6" y="190.8" textLength="12.2" clip-path="url(#terminal-293622159-line-7)">│</text><text class="terminal-293622159-r10" x="902.8" y="190.8" textLength="48.8" clip-path="url(#terminal-293622159-line-7)">└──&#160;</text><text class="terminal-293622159-r2" x="951.6" y="190.8" textLength="24.4" clip-path="url(#terminal-293622159-line-7)">▶&#160;</text><text class="terminal-293622159-r9" x="976" y="190.8" textLength="48.8" clip-path="url(#terminal-293622159-line-7)">stud</text><text class="terminal-293622159-r2" x="1024.8" y="190.8" textLength="85.4" clip-path="url(#terminal-293622159-line-7)">&#160;—&#160;Stud</text><text class="terminal-293622159-r12" x="1110.2" y="190.8" textLength="146.4" clip-path="url(#terminal-293622159-line-7)">&#160;[primitive]</text><text class="terminal-293622159-r1" x="1464" y="190.8" textLength="12.2" clip-path="url(#terminal-293622159-line-7)">
</text><text class="terminal-293622159-r10" x="0" y="215.2" textLength="48.8" clip-path="url(#terminal-293622159-line-8)">├──&#160;</text><text class="terminal-293622159-r2" x="48.8" y="215.2" textLength="134.2" clip-path="url(#terminal-293622159-line-8)">Minifig&#160;(2)</text><text class="terminal-293622159-r5" x="341.6" y="215.2" textLength="12.2" clip-path="url(#terminal-293622159-line-8)">│</text><text class="terminal-293622159-r2" x="353.8" y="215.2" textLength="73.2" clip-path="url(#terminal-293622159-line-8)">&#160;973&#160;&#160;</text><text class="terminal-293622159-r2" x="427" y="215.2" textLength="390.4" clip-path="url(#terminal-293622159-line-8)">&#160;Minifig&#160;Torso&#160;&#160;&#160;&#160;&#160;&#160;&#160;&#160;&#160;&#160;&#160;&#160;&#160;&#160;&#160;&#160;&#160;&#160;</text><text class="terminal-293622159-r5" x="890.6" y="215.2" textLength="12.2" clip-path="url(#terminal-293622159-line-8)">│</text><text class="terminal-293622159-r1" x="1464" y="215.2" textLength="12.2" clip-path="url(#terminal-293622159-line-8)">
</text><text class="terminal-293622159-r10" x="0" y="239.6" textLength="48.8" clip-path="url(#terminal-293622159-line-9)">├──&#160;</text><text class="terminal-293622159-r2" x="48.8" y="239.6" textLength="109.8" clip-path="url(#terminal-293622159-line-9)">Plate&#160;(2)</text><text class="terminal-293622159-r5" x="341.6" y="239.6" textLength="12.2" clip-path="url(#terminal-293622159-line-9)">│</text><text class="terminal-293622159-r2" x="353.8" y="239.6" textLength="73.2" clip-path="url(#terminal-293622159-line-9)">&#160;3901&#160;</text><text class="terminal-293622159-r2" x="427" y="239.6" textLength="390.4" clip-path="url(#terminal-293622159-line-9)">&#160;Minifig&#160;Hair&#160;Male&#160;&#160;&#160;&#160;&#160;&#160;&#160;&#160;&#160;&#160;&#160;&#160;&#160;&#160;</text><text class="terminal-293622159-r5" x="890.6" y="239.6" textLength="12.2" clip-path="url(#terminal-293622159-line-9)">│</text><text class="terminal-293622159-r1" x="1464" y="239.6" textLength="12.2" clip-path="url(#terminal-293622159-line-9)">
</text><text class="terminal-293622159-r10" x="0" y="264" textLength="48.8" clip-path="url(#terminal-293622159-line-10)">└──&#160;</text><text class="terminal-293622159-r2" x="48.8" y="264" textLength="24.4" clip-path="url(#terminal-293622159-line-10)">▶&#160;</text><text class="terminal-293622159-r2" x="73.2" y="264" textLength="134.2" clip-path="url(#terminal-293622159-line-10)">Minifig&#160;(2)</text><text class="terminal-293622159-r5" x="341.6" y="264" textLength="12.2" clip-path="url(#terminal-293622159-line-10)">╰</text><text class="terminal-293622159-r5" x="353.8" y="264" textLength="536.8" clip-path="url(#terminal-293622159-line-10)">────────────────────────────────────────────</text><text class="terminal-293622159-r5" x="890.6" y="264" textLength="12.2" clip-path="url(#terminal-293622159-line-10)">╯</text><text class="terminal-293622159-r1" x="1464" y="264" textLength="12.2" clip-path="url(#terminal-293622159-line-10)">
</text><text class="terminal-293622159-r1" x="1464" y="288.4" textLength="12.2" clip-path="url(#terminal-293622159-line-11)">
</text><text class="terminal-293622159-r1" x="1464" y="312.8" textLength="12.2" clip-path="url(#terminal-293622159-line-12)">
</text><text class="terminal-293622159-r1" x="1464" y="337.2" textLength="12.2" clip-path="url(#terminal-293622159-line-13)">
</text><text class="terminal-293622159-r1" x="1464" y="361.6" textLength="12.2" clip-path="url(#terminal-293622159-line-14)">
</text><text class="terminal-293622159-r1" x="1464" y="386" textLength="12.2" clip-path="url(#terminal-293622159-line-15)">
</text><text class="terminal-293622159-r1" x="1464" y="410.4" textLength="12.2" clip-path="url(#terminal-293622159-line-16)">
</text><text class="terminal-293622159-r1" x="1464" y="434.8" textLength="12.2" clip-path="url(#terminal-293622159-line-17)">
</text><text class="terminal-293622159-r1" x="1464" y="459.2" textLength="12.2" clip-path="url(#terminal-293622159-line-18)">
</text><text class="terminal-293622159-r1" x="1464" y="483.6" textLength="12.2" clip-path="url(#terminal-293622159-line-19)">
</text><text class="terminal-293622159-r1" x="1464" y="508" textLength="12.2" clip-path="url(#terminal-293622159-line-20)">
</text><text class="terminal-293622159-r1" x="1464" y="532.4" textLength="12.2" clip-path="url(#terminal-293622159-line-21)">
</text><text class="terminal-293622159-r1" x="1464" y="556.8" textLength="12.2" clip-path="url(#terminal-293622159-line-22)">
</text><text class="terminal-293622159-r1" x="1464" y="581.2" textLength="12.2" clip-path="url(#terminal-293622159-line-23)">
</text><text class="terminal-293622159-r1" x="1464" y="605.6" textLength="12.2" clip-path="url(#terminal-293622159-line-24)">
</text><text class="terminal-293622159-r1" x="1464" y="630" textLength="12.2" clip-path="url(#terminal-293622159-line-25)">
</text><text class="terminal-293622159-r1" x="1464" y="654.4" textLength="12.2" clip-path="url(#terminal-293622159-line-26)">
</text><text class="terminal-293622159-r1" x="1464" y="678.8" textLength="12.2" clip-path="url(#terminal-293622159-line-27)">
</text><text class="terminal-293622159-r1" x="1464" y="703.2" textLength="12.2" clip-path="url(#terminal-293622159-line-28)">
</text><text class="terminal-293622159-r1" x="1464" y="727.6" textLength="12.2" clip-path="url(#terminal-293622159-line-29)">
</text><text class="terminal-293622159-r1" x="1464" y="752" textLength="12.2" clip-path="url(#terminal-293622159-line-30)">
</text><text class="terminal-293622159-r1" x="1464" y="776.4" textLength="12.2" clip-path="url(#terminal-293622159-line-31)">
</text><text class="terminal-293622159-r1" x="1464" y="800.8" textLength="12.2" clip-path="url(#terminal-293622159-line-32)">
</text><text class="terminal-293622159-r1" x="1464" y="825.2" textLength="12.2" clip-path="url(#terminal-293622159-line-33)">
</text><text class="terminal-293622159-r1" x="1464" y="849.6" textLength="12.2" clip-path="url(#terminal-293622159-line-34)">
</text><text class="terminal-293622159-r1" x="1464" y="874" textLength="12.2" clip-path="url(#terminal-293622159-line-35)">
</text><text class="terminal-293622159-r1" x="1464" y="898.4" textLength="12.2" clip-path="url(#terminal-293622159-line-36)">
</text><text class="terminal-293622159-r1" x="1464" y="922.8" textLength="12.2" clip-path="url(#terminal-293622159-line-37)">
</text><text class="terminal-293622159-r1" x="1464" y="947.2" textLength="12.2" clip-path="url(#terminal-293622159-line-38)">
</text><text class="terminal-293622159-r13" x="0" y="971.6" textLength="36.6" clip-path="url(#terminal-293622159-line-39)">&#160;/&#160;</text><text class="terminal-293622159-r2" x="36.6" y="971.6" textLength="85.4" clip-path="url(#terminal-293622159-line-39)">Filter&#160;</text><text class="terminal-293622159-r13" x="122" y="971.6" textLength="36.6" clip-path="url(#terminal-293622159-line-39)">&#160;q&#160;</text><text class="terminal-293622159-r2" x="158.6" y="971.6" textLength="61" clip-path="url(#terminal-293622159-line-39)">Quit&#160;</text><text class="terminal-293622159-r13" x="219.6" y="971.6" textLength="36.6" clip-path="url(#terminal-293622159-line-39)">&#160;?&#160;</text><text class="terminal-293622159-r2" x="256.2" y="971.6" textLength="61" clip-path="url(#terminal-293622159-line-39)">Help&#160;</text><text class="terminal-293622159-r13" x="317.2" y="971.6" textLength="36.6" clip-path="url(#terminal-293622159-line-39)">&#160;1&#160;</text><text class="terminal-293622159-r2" x="353.8" y="971.6" textLength="97.6" clip-path="url(#terminal-293622159-line-39)">Catalog&#160;</text><text class="terminal-293622159-r13" x="451.4" y="971.6" textLength="36.6" clip-path="url(#terminal-293622159-line-39)">&#160;2&#160;</text><text class="terminal-293622159-r2" x="488" y="971.6" textLength="73.2" clip-path="url(#terminal-293622159-line-39)">Model&#160;</text><text class="terminal-293622159-r13" x="561.2" y="971.6" textLength="36.6" clip-path="url(#terminal-293622159-line-39)">&#160;y&#160;</text><text class="terminal-293622159-r2" x="597.8" y="971.6" textLength="122" clip-path="url(#terminal-293622159-line-39)">Yank&#160;code&#160;</text><text class="terminal-293622159-r13" x="719.8" y="971.6" textLength="36.6" clip-path="url(#terminal-293622159-line-39)">&#160;o&#160;</text><text class="terminal-293622159-r2" x="756.4" y="971.6" textLength="122" clip-path="url(#terminal-293622159-line-39)">ldraw.org&#160;</text><text class="terminal-293622159-r13" x="878.4" y="971.6" textLength="36.6" clip-path="url(#terminal-293622159-line-39)">&#160;e&#160;</text><text class="terminal-293622159-r2" x="915" y="971.6" textLength="97.6" clip-path="url(#terminal-293622159-line-39)">Snippet&#160;</text>
    </g>
    </g>
</svg>
